<mxfile host="65bd71144e">
    <diagram id="GJWZSONQQaKNieO3eElJ" name="Page-1">
        <mxGraphModel dx="792" dy="424" grid="0" gridSize="10" guides="1" tooltips="1" connect="1" arrows="1" fold="1" page="1" pageScale="1" pageWidth="850" pageHeight="1100" background="#ffffff" math="0" shadow="0">
            <root>
                <mxCell id="0"/>
                <mxCell id="1" parent="0"/>
                <mxCell id="15" value="" style="rounded=1;whiteSpace=wrap;html=1;fillColor=none;strokeColor=#030303;strokeWidth=2;" vertex="1" parent="1">
                    <mxGeometry x="89" y="33" width="523" height="340" as="geometry"/>
                </mxCell>
                <mxCell id="7" value="users document" style="swimlane;childLayout=stackLayout;horizontal=1;startSize=30;horizontalStack=0;rounded=1;fontSize=14;fontStyle=0;strokeWidth=2;resizeParent=0;resizeLast=1;shadow=0;dashed=0;align=center;strokeColor=#030303;fontColor=default;" vertex="1" parent="1">
                    <mxGeometry x="172" y="133" width="119" height="128" as="geometry"/>
                </mxCell>
                <mxCell id="8" value="+ _id &#10;+ name&#10;+ gender&#10;+ email&#10;+ phone&#10;+ created" style="align=left;strokeColor=none;fillColor=none;spacingLeft=4;fontSize=12;verticalAlign=top;resizable=0;rotatable=0;part=1;fontColor=#030303;" vertex="1" parent="7">
                    <mxGeometry y="30" width="119" height="98" as="geometry"/>
                </mxCell>
                <mxCell id="9" value="emails document" style="swimlane;childLayout=stackLayout;horizontal=1;startSize=30;horizontalStack=0;rounded=1;fontSize=14;fontStyle=0;strokeWidth=2;resizeParent=0;resizeLast=1;shadow=0;dashed=0;align=center;strokeColor=#030303;fontColor=default;" vertex="1" parent="1">
                    <mxGeometry x="371" y="77" width="160" height="82" as="geometry"/>
                </mxCell>
                <mxCell id="10" value="+ _id &#10;+ email" style="align=left;strokeColor=none;fillColor=none;spacingLeft=4;fontSize=12;verticalAlign=top;resizable=0;rotatable=0;part=1;fontColor=#030303;" vertex="1" parent="9">
                    <mxGeometry y="30" width="160" height="52" as="geometry"/>
                </mxCell>
                <mxCell id="11" value="contacts document" style="swimlane;childLayout=stackLayout;horizontal=1;startSize=30;horizontalStack=0;rounded=1;fontSize=14;fontStyle=0;strokeWidth=2;resizeParent=0;resizeLast=1;shadow=0;dashed=0;align=center;strokeColor=#030303;fontColor=default;" vertex="1" parent="1">
                    <mxGeometry x="371" y="247" width="160" height="96" as="geometry"/>
                </mxCell>
                <mxCell id="12" value="+ _id &#10;+ phone&#10;+ zipcode" style="align=left;strokeColor=none;fillColor=none;spacingLeft=4;fontSize=12;verticalAlign=top;resizable=0;rotatable=0;part=1;fontColor=#030303;" vertex="1" parent="11">
                    <mxGeometry y="30" width="160" height="66" as="geometry"/>
                </mxCell>
                <mxCell id="13" value="" style="edgeStyle=entityRelationEdgeStyle;fontSize=12;html=1;endArrow=ERoneToMany;fontColor=#030303;exitX=0.996;exitY=0.577;exitDx=0;exitDy=0;exitPerimeter=0;entryX=0;entryY=0.25;entryDx=0;entryDy=0;strokeColor=#030303;" edge="1" parent="1" source="8" target="10">
                    <mxGeometry width="100" height="100" relative="1" as="geometry">
                        <mxPoint x="303" y="225" as="sourcePoint"/>
                        <mxPoint x="403" y="125" as="targetPoint"/>
                    </mxGeometry>
                </mxCell>
                <mxCell id="14" value="" style="edgeStyle=entityRelationEdgeStyle;fontSize=12;html=1;endArrow=ERzeroToMany;endFill=1;strokeColor=#030303;fontColor=#030303;entryX=0;entryY=0.25;entryDx=0;entryDy=0;" edge="1" parent="1" target="12">
                    <mxGeometry width="100" height="100" relative="1" as="geometry">
                        <mxPoint x="292" y="232" as="sourcePoint"/>
                        <mxPoint x="403" y="125" as="targetPoint"/>
                    </mxGeometry>
                </mxCell>
                <mxCell id="16" value="cluster0.test" style="text;html=1;align=center;verticalAlign=middle;resizable=0;points=[];autosize=1;strokeColor=none;fillColor=none;fontColor=#030303;fontSize=14;" vertex="1" parent="1">
                    <mxGeometry x="101" y="45" width="93" height="29" as="geometry"/>
                </mxCell>
            </root>
        </mxGraphModel>
    </diagram>
</mxfile>